<?xml version="1.0" encoding="UTF-8" standalone="no"?>
<!DOCTYPE svg PUBLIC "-//W3C//DTD SVG 1.1//EN" "http://www.w3.org/Graphics/SVG/1.1/DTD/svg11.dtd">
<!-- Created with Vectornator (http://vectornator.io/) -->
<svg height="100%" stroke-miterlimit="10" style="fill-rule:nonzero;clip-rule:evenodd;stroke-linecap:round;stroke-linejoin:round;" version="1.1" viewBox="0 0 1305.72 1110.28" width="100%" xml:space="preserve" xmlns="http://www.w3.org/2000/svg" xmlns:vectornator="http://vectornator.io" xmlns:xlink="http://www.w3.org/1999/xlink">
<defs/>
<clipPath id="ArtboardFrame">
<rect height="1110.28" width="1305.72" x="0" y="0"/>
</clipPath>
<g clip-path="url(#ArtboardFrame)" id="Layer-1" vectornator:layerName="Layer 1">
<path d="M595.024 1027.72L254.954 831.378C229.208 816.514 208.337 780.364 208.337 750.635L208.337 357.956C208.337 328.228 229.208 292.078 254.954 277.214L595.024 80.8743C620.77 66.01 662.512 66.01 688.258 80.8743L1028.33 277.214C1054.07 292.078 1074.94 328.228 1074.94 357.956L1074.94 750.635C1074.94 780.364 1054.07 816.514 1028.33 831.378L688.258 1027.72C662.512 1042.58 620.77 1042.58 595.024 1027.72Z" fill="none" opacity="0" stroke="#e94120" stroke-linecap="butt" stroke-linejoin="round" stroke-width="100"/>
<path d="M641.487 12.654C622.695 12.654 603.918 16.8137 589.581 25.0915L210.8 243.748C182.125 260.303 158.893 300.574 158.893 333.685L158.893 771.06C158.893 804.171 182.125 844.411 210.8 860.966L589.581 1079.65C618.256 1096.21 664.75 1096.21 693.425 1079.65L1072.17 860.966C1100.85 844.411 1124.08 804.171 1124.08 771.06L1124.08 333.685C1124.08 300.574 1100.85 260.303 1072.17 243.748L693.425 25.0915C679.087 16.8137 660.279 12.654 641.487 12.654ZM641.487 124.341C656.39 124.341 671.304 127.62 682.675 134.185L983.05 307.623C1005.79 320.752 1024.24 352.676 1024.24 378.935L1024.24 725.81C1024.24 752.07 1005.79 783.993 983.05 797.123L682.675 970.56C659.933 983.69 623.041 983.69 600.3 970.56L299.925 797.123C277.183 783.993 258.737 752.07 258.737 725.81L258.737 378.935C258.737 352.676 277.183 320.753 299.925 307.623L600.3 134.185C611.67 127.62 626.584 124.341 641.487 124.341Z" fill="#e94420" fill-rule="nonzero" opacity="1" stroke="#000000" stroke-linecap="butt" stroke-linejoin="round" stroke-width="20"/>
<g opacity="0">
<path d="M1773.13 383.276C1599.93 331.294 1575.32 315.214 1537.35 277.239C1569.04 323.672 1584.42 337.811 1589.34 359.255C1594.26 380.698 1584.97 377.806 1568.09 375.356C1551.22 372.906 1527.41 342.238 1509.2 324.468C1492.39 308.055 1401.72 286.589 1371.36 279.861C1490.69 337.415 1479.29 367.951 1472.69 393.096C1466.08 418.242 1457.34 420.722 1444.3 420.722C1431.26 420.722 1434.27 362.757 1373.64 342.893C1324.06 326.651 1288.91 322.335 1288.91 322.335C1288.91 322.335 1262.14 320.325 1229.68 311.325C1202.25 303.719 1208.94 308.767 1177.53 290.245C1237.86 340.581 1290.08 341.226 1312.89 380.423C1335.69 419.62 1336.96 444.874 1308.39 464.599C1276.35 486.72 1211.54 429.573 1195.4 384.314C1179.26 339.054 1163.3 309.04 1108.38 270.92C1046.71 237.865 1032.02 233.893 994.756 225.879C1098.22 303.942 1099.23 372.26 1102.6 425.982C1106.29 484.884 1105.87 533.017 1084.35 572.339C1072.77 591.803 1076.72 596.667 1037.1 620.768C991.435 616.931 979.668 614.899 953.771 598.464C919.926 569.168 937.465 498.891 940.317 484.853C943.637 468.508 935.495 422.619 935.495 422.619C929.048 472.831 924.44 481.55 911.858 517.47C888.684 579.01 917.284 636.918 896.239 712.438C884.561 753.775 864.802 773.994 848.573 794.118C832.344 814.243 914.993 863.324 988.984 806.952C1062.98 750.58 1297.62 594.309 1419.57 536.723C1541.51 479.136 1701.91 421.913 1742.63 408.458C1783.35 395.003 1946.32 435.257 1773.13 383.276Z" fill="#fdaf19" fill-rule="nonzero" stroke="none"/>
<path d="M994.094 207.312C993.07 207.144 992.048 207.108 991.281 207.375C990.784 207.548 990.257 207.705 989.844 208.031C989.187 208.551 988.513 209.102 988.125 209.844C987.704 210.648 987.55 211.593 987.5 212.5C987.466 213.121 987.682 213.752 987.875 214.344C988.43 216.041 991.154 217.736 992.469 218.75C992.988 219.15 993.482 219.536 994 219.938C994.516 220.338 995.048 220.754 995.562 221.156C996.576 221.95 997.587 222.729 998.594 223.531C1000.08 224.713 1001.53 225.923 1003 227.125C1004.91 228.69 1006.81 230.275 1008.69 231.875C1033.26 252.801 1055.54 277.09 1070.81 305.719C1079.38 321.78 1085.52 339.068 1089.12 356.906C1092.27 372.48 1093.59 388.29 1094.56 404.125C1095.07 412.367 1095.6 420.627 1096 428.875C1097.05 450.506 1097.44 472.268 1095.25 493.844C1093.32 512.8 1089.22 531.68 1081.09 549C1078.85 553.778 1076.12 558.277 1073.66 562.938C1070.8 568.344 1068.21 573.935 1064.22 578.625C1059.23 584.482 1052.88 589.099 1046.56 593.406C1043.33 595.609 1040.03 597.71 1036.72 599.781C1036 600.231 1035.16 600.774 1034.44 601.219C1034.13 601.41 1033.8 601.574 1033.5 601.781C1033.12 601.719 1032.76 601.72 1032.38 601.688C1031.92 601.649 1031.45 601.633 1031 601.594C1029.24 601.443 1027.5 601.282 1025.75 601.125C1020.75 600.678 1015.74 600.187 1010.75 599.625C1001.35 598.565 991.885 597.27 982.812 594.5C976.423 592.55 970.342 589.788 964.5 586.562C962.065 585.218 959.681 583.801 957.312 582.344C956.371 581.765 955.396 581.272 954.5 580.625C953.946 580.225 953.489 579.665 953 579.188C952.443 578.643 951.807 578.013 951.281 577.438C949.625 575.623 948.15 573.654 946.812 571.594C941.331 563.15 938.578 553.202 937.219 543.312C934.864 526.175 936.396 508.607 939.25 491.625C939.995 487.194 940.856 482.771 941.781 478.375C942.483 475.039 943.316 471.71 943.656 468.312C944.35 461.377 943.91 454.338 943.375 447.406C942.761 439.454 941.823 431.523 940.719 423.625C940.399 421.338 940.038 419.064 939.688 416.781C939.33 414.452 938.986 412.105 938.594 409.781C938.517 409.329 938.422 408.889 938.344 408.438C938.342 408.425 938.293 408.063 938.281 408.062C934.873 407.948 931.472 407.686 928.062 407.719C927.913 407.72 927.997 408.009 927.969 408.156C927.92 408.41 927.908 408.681 927.875 408.938C927.768 409.76 927.67 410.559 927.562 411.375C926.955 415.992 926.319 420.614 925.625 425.219C923.924 436.502 921.922 447.742 919 458.781C915.592 471.652 910.908 484.15 906.469 496.688C904.676 501.75 902.769 506.783 901.25 511.938C899.341 518.412 897.913 525.018 896.875 531.688C893.75 551.775 894.428 572.149 895.438 592.375C896.02 604.048 896.68 615.719 896.875 627.406C897.09 640.336 896.62 653.316 895.031 666.156C891.666 693.359 883.321 720.01 868.375 743.125C862.367 752.416 855.414 761.013 848.375 769.531C846.625 771.649 844.888 773.743 843.156 775.875C842.04 777.249 840.971 778.604 840.219 780.219C838.887 783.077 838.57 786.296 839.188 789.375C839.49 790.884 840.009 792.325 840.656 793.719C843.807 800.5 849.942 805.697 856.094 809.688C868.19 817.534 882.499 821.927 896.719 823.781C922.993 827.208 949.839 821.486 972.906 808.594C977.064 806.27 981.098 803.731 985 801C988.27 798.712 991.434 796.269 994.625 793.875C999.679 790.083 1004.76 786.338 1009.88 782.625C1024.89 771.722 1040.08 761.051 1055.34 750.5C1117.3 707.669 1180.36 666.393 1244.41 626.75C1272.34 609.458 1300.49 592.51 1328.97 576.125C1350.88 563.515 1372.99 551.217 1395.5 539.688C1425.65 524.24 1456.72 510.55 1487.84 497.188C1533.44 477.61 1579.57 459.254 1625.97 441.656C1653.47 431.226 1681.05 421.055 1708.78 411.25C1716.83 408.404 1724.89 405.597 1732.97 402.844C1737.1 401.436 1741.25 399.789 1745.53 398.875C1750.46 397.821 1755.53 397.472 1760.56 397.281C1769.88 396.928 1779.24 397.354 1788.53 397.938C1802.53 398.816 1816.47 400.296 1830.44 401.531C1832.07 401.675 1833.68 401.811 1835.31 401.938C1836.75 402.049 1838.19 402.166 1839.62 402.25C1840.85 402.322 1842.08 402.377 1843.31 402.406C1846.67 402.485 1851.25 402.653 1853.28 399.344C1853.9 398.331 1854.17 397.418 1854.19 396.219C1854.25 391.34 1848.07 389.144 1844.38 387.656C1843.34 387.24 1842.29 386.829 1841.25 386.438C1840.02 385.975 1838.77 385.536 1837.53 385.094C1823.7 380.169 1809.63 375.893 1795.59 371.594C1790.45 370.018 1795.6 371.595 1772.28 364.531C1771.81 364.39 1771.34 364.416 1770.88 364.406C1765.64 362.83 1765.55 362.799 1762.91 362C1758.64 360.71 1754.36 359.427 1750.09 358.125C1736.61 354.01 1723.12 349.813 1709.69 345.531C1689.75 339.178 1669.88 332.63 1650.22 325.469C1633.34 319.322 1616.55 312.788 1600.38 304.938C1590.45 300.118 1580.76 294.743 1571.66 288.5C1564 283.255 1556.82 277.375 1550 271.094C1548.86 270.042 1547.72 268.977 1546.59 267.906C1545.45 266.815 1544.32 265.731 1543.19 264.625C1542.42 263.872 1541.64 263.102 1540.88 262.344C1540.07 261.549 1538.98 260.218 1537.97 259.656C1537.66 259.483 1537.38 259.234 1537.03 259.188C1535.95 259.045 1534.69 258.562 1533.75 259.125C1532.21 260.049 1531.13 261.667 1530.28 263.25C1529.96 263.853 1530.31 264.603 1530.41 265.281C1530.54 266.22 1531.28 267.103 1531.81 267.875C1532.14 268.349 1532.49 268.807 1532.81 269.281C1533.13 269.75 1533.46 270.219 1533.78 270.688C1534.1 271.15 1534.4 271.632 1534.72 272.094C1535.03 272.549 1535.37 273.014 1535.69 273.469C1536.31 274.358 1536.91 275.238 1537.53 276.125C1538.44 277.419 1539.34 278.71 1540.25 280C1547.13 289.74 1554.23 299.325 1561.25 308.969C1566.78 316.572 1572.44 324.227 1576.78 332.594C1579.95 338.694 1582.23 345.313 1583.06 352.156C1583.24 353.65 1583.4 355.192 1583.16 356.688C1583.11 356.996 1583.03 357.647 1582.75 357.875C1582.27 358.271 1581.39 358.273 1580.81 358.312C1577.4 358.544 1573.89 357.851 1570.53 357.344C1567.69 356.915 1564.91 356.594 1562.25 355.438C1559.21 354.114 1556.4 352.261 1553.75 350.281C1550.36 347.75 1547.18 344.956 1544.09 342.062C1536.11 334.573 1528.74 326.445 1521.25 318.469C1518.43 315.469 1515.62 312.482 1512.72 309.562C1511.25 308.087 1509.8 306.599 1508.16 305.312C1504.18 302.19 1499.6 299.845 1495.03 297.719C1489.09 294.951 1482.95 292.589 1476.78 290.375C1457.94 283.614 1438.6 278.211 1419.25 273.156C1405.85 269.655 1392.41 266.377 1378.91 263.281C1377.72 263.009 1376.5 262.738 1375.31 262.469C1374.56 262.299 1373.87 262.137 1373.12 261.969C1372.78 261.89 1372.41 261.797 1372.06 261.719C1371.14 261.513 1370 261.157 1369.06 261.25C1368.68 261.288 1368.25 261.239 1367.91 261.406C1367.01 261.841 1365.9 262.168 1365.41 263.031C1364.63 264.385 1364.37 266.031 1364.38 267.594C1364.38 268.352 1365.02 268.959 1365.44 269.594C1366.07 270.556 1368.56 271.606 1369.56 272.094C1369.87 272.241 1370.17 272.383 1370.47 272.531C1370.77 272.676 1371.08 272.823 1371.38 272.969C1372.27 273.409 1373.17 273.838 1374.06 274.281C1375.23 274.861 1376.37 275.447 1377.53 276.031C1378.67 276.604 1379.83 277.171 1380.97 277.75C1383.17 278.869 1385.35 280.011 1387.53 281.156C1390.13 282.518 1392.71 283.909 1395.28 285.312C1406.53 291.44 1417.6 297.953 1428.16 305.219C1436.46 310.937 1444.51 317.109 1451.66 324.25C1459.23 331.819 1466.28 340.942 1468.38 351.688C1469.8 358.985 1468.52 366.295 1466.69 373.406C1466.15 375.489 1465.6 377.583 1465.03 379.656C1464.54 381.44 1464.01 383.187 1463.41 384.938C1461.41 390.749 1458.42 398.038 1452.31 400.594C1449.97 401.576 1447.39 401.853 1444.88 401.969C1443.98 402.01 1443.08 402.023 1442.19 402.031C1442.11 401.963 1442.01 401.857 1441.94 401.781C1441.82 401.655 1441.7 401.543 1441.59 401.406C1441.17 400.865 1440.81 400.287 1440.47 399.688C1439.5 397.954 1438.7 396.113 1437.94 394.281C1435.62 388.757 1433.52 383.137 1431.03 377.688C1427.78 370.588 1424 363.738 1419.38 357.438C1413.52 349.453 1406.38 342.435 1398.22 336.812C1392.67 332.989 1386.7 329.816 1380.47 327.25C1375.48 325.195 1370.3 323.578 1365.16 321.969C1358.93 320.022 1352.69 318.18 1346.41 316.438C1329.39 311.72 1312.12 307.664 1294.69 304.781C1292.21 304.371 1289.72 303.962 1287.22 303.656C1284.16 303.282 1281.09 303.072 1278.03 302.688C1271.33 301.845 1264.67 300.798 1258.03 299.562C1250.82 298.221 1243.64 296.661 1236.53 294.875C1231.8 293.687 1227.13 292.315 1222.41 291.094C1219.05 290.225 1215.66 289.433 1212.28 288.625C1209.19 287.885 1206.09 287.121 1203.12 285.969C1196.71 283.481 1190.74 279.816 1184.81 276.375C1184.05 275.932 1183.14 275.401 1182.34 274.938C1181.74 274.582 1181.17 274.263 1180.56 273.906C1180.26 273.727 1179.96 273.524 1179.66 273.344C1178.9 272.902 1177.91 272.203 1177.06 271.969C1176.71 271.872 1176.36 271.654 1176 271.719C1174.69 271.957 1173.01 271.818 1172.16 272.844C1170.95 274.29 1170.8 276.415 1170.56 278.281C1170.49 278.819 1171.01 279.248 1171.28 279.719C1171.77 280.569 1173.09 281.441 1173.84 282.062C1174.16 282.323 1174.46 282.585 1174.78 282.844C1175.1 283.103 1175.43 283.368 1175.75 283.625C1176.07 283.88 1176.37 284.121 1176.69 284.375C1177.32 284.879 1177.96 285.376 1178.59 285.875C1189.08 294.107 1200.18 301.584 1211.69 308.312C1226.56 317.007 1242.13 324.258 1257.59 331.812C1271.61 338.661 1285.99 345.936 1297 357.25C1301.84 362.231 1305.47 368.007 1308.81 374.062C1311.38 378.717 1313.8 383.462 1315.91 388.344C1320.9 399.929 1324.97 413.445 1320.72 425.875C1319.95 428.126 1318.9 430.288 1317.66 432.312C1315.39 435.992 1312.47 439.226 1309.22 442.062C1306.6 444.347 1303.73 446.672 1300.62 448.25C1291.72 452.769 1280.97 450.545 1272.12 447.062C1263.98 443.856 1256.41 439.238 1249.38 434.062C1240 427.171 1231.47 419.127 1223.78 410.406C1215.25 400.729 1207.59 390.077 1201.91 378.469C1199.5 373.556 1197.7 368.438 1195.81 363.312C1194.48 359.677 1193.09 356.066 1191.66 352.469C1186.85 340.433 1181.33 328.64 1174.47 317.625C1162.6 298.569 1146.92 282.416 1129.5 268.375C1124.73 264.531 1119.85 260.831 1114.88 257.25C1112.85 255.788 1110.82 254.212 1108.69 252.906C1107.09 251.927 1105.37 251.1 1103.72 250.219C1101.03 248.787 1098.32 247.354 1095.62 245.938C1087.94 241.901 1080.23 237.946 1072.44 234.125C1061.14 228.587 1049.68 223.34 1037.84 219.062C1029.27 215.965 1020.51 213.452 1011.66 211.281C1006.76 210.079 1001.84 209.008 996.906 207.938C996.136 207.77 995.117 207.481 994.094 207.312ZM1013.06 222.312C1019.28 223.904 1025.46 225.619 1031.53 227.719C1047.02 233.078 1061.86 240.198 1076.47 247.594C1082.77 250.782 1089.01 254.042 1095.25 257.344C1097.08 258.315 1098.92 259.273 1100.75 260.25C1101.61 260.707 1102.52 261.119 1103.34 261.625C1105.26 262.793 1107.06 264.253 1108.88 265.562C1112.23 267.979 1115.55 270.463 1118.81 273C1130.59 282.147 1141.77 292.153 1151.47 303.5C1158.42 311.628 1164.52 320.452 1169.75 329.781C1175.43 339.927 1180.07 350.616 1184.22 361.469C1186.97 368.675 1189.32 376.029 1192.72 382.969C1196.9 391.499 1202.09 399.513 1207.84 407.062C1214.64 415.987 1222.27 424.321 1230.59 431.844C1234.23 435.127 1237.97 438.269 1241.88 441.219C1244.71 443.36 1247.63 445.393 1250.62 447.312C1253.03 448.857 1255.52 450.323 1258.03 451.688C1271.22 458.844 1287.96 464.382 1302.66 458.5C1306.28 457.049 1309.49 454.85 1312.56 452.469C1321.92 445.218 1329.43 435.59 1331.78 423.781C1333.83 413.478 1331.96 402.884 1328.62 393.062C1326.24 386.045 1323.11 379.299 1319.66 372.75C1316.98 367.679 1314.23 362.578 1310.84 357.938C1306.59 352.105 1301.44 346.973 1295.78 342.5C1287.6 336.034 1278.43 330.953 1269.16 326.25C1260.28 321.748 1251.27 317.563 1242.34 313.156C1234.4 309.23 1226.53 305.095 1218.84 300.688C1219.65 300.893 1220.47 301.07 1221.28 301.281C1226.21 302.572 1231.11 303.981 1236.06 305.188C1244.83 307.323 1253.66 309.131 1262.56 310.625C1267.94 311.527 1273.34 312.326 1278.75 312.969C1280.47 313.173 1282.21 313.364 1283.94 313.531C1284.6 313.595 1285.27 313.701 1285.94 313.719C1288.3 314.075 1290.67 314.391 1293.03 314.781C1310.57 317.68 1327.95 321.779 1345.06 326.562C1351.29 328.302 1357.46 330.149 1363.62 332.094C1367.42 333.291 1371.23 334.459 1374.94 335.906C1385.6 340.068 1395.45 346.231 1403.53 354.375C1410.3 361.204 1415.66 369.258 1419.94 377.844C1422.97 383.929 1425.4 390.273 1427.97 396.562C1429.76 400.951 1431.63 405.998 1435.19 409.312C1436.82 410.829 1438.83 411.883 1441.06 412.094C1442.47 412.227 1443.94 412.128 1445.34 412.062C1450.93 411.803 1456.42 410.579 1460.97 407.188C1469.12 401.112 1472.68 390.151 1475.19 380.75C1477.61 371.677 1479.91 362.489 1478.78 353.031C1477.4 341.372 1471.27 331.019 1463.66 322.312C1453.58 310.796 1441.06 301.498 1428.31 293.156C1421.67 288.813 1414.84 284.728 1407.94 280.812C1416.2 282.91 1424.47 284.923 1432.69 287.188C1447.88 291.376 1463.05 295.911 1477.81 301.469C1482.94 303.401 1488.05 305.454 1492.97 307.875C1495.87 309.302 1498.77 310.854 1501.38 312.781C1503.35 314.239 1505.01 316.068 1506.72 317.812C1509.57 320.723 1512.37 323.681 1515.16 326.656C1523.58 335.65 1531.88 344.861 1541.16 353C1546.98 358.11 1553.44 363.271 1560.91 365.719C1563.23 366.482 1565.65 366.76 1568.06 367.125C1569.96 367.412 1571.85 367.729 1573.75 367.969C1578.77 368.602 1584.69 369.146 1588.94 365.812C1594.5 361.45 1593.65 353.352 1592.47 347.219C1592.2 345.82 1591.88 344.412 1591.53 343.031C1591.17 341.608 1590.77 340.208 1590.31 338.812C1589.71 336.958 1589.02 335.138 1588.25 333.344C1585.34 326.52 1581.39 320.176 1577.22 314.062C1573.23 308.215 1569.03 302.521 1564.84 296.812C1564.37 296.169 1563.91 295.519 1563.44 294.875C1565.72 296.497 1567.96 298.169 1570.31 299.688C1579.48 305.613 1589.13 310.774 1599 315.438C1616.55 323.733 1634.73 330.64 1653 337.156C1675.09 345.032 1697.41 352.27 1719.78 359.281C1730.58 362.664 1741.39 365.993 1752.22 369.281C1755.41 370.252 1755.04 370.128 1767.97 374.031C1768.37 374.288 1768.77 374.574 1769.25 374.719C1777.12 377.086 1774.48 376.273 1777.09 377.062C1780.73 378.159 1784.37 379.269 1788 380.375C1798.01 383.424 1807.98 386.564 1817.94 389.781C1809.9 389.028 1801.86 388.229 1793.81 387.656C1784.38 386.985 1774.93 386.486 1765.47 386.562C1758.63 386.618 1751.74 386.942 1745 388.188C1741.37 388.859 1737.9 389.982 1734.41 391.156C1731.27 392.211 1728.16 393.298 1725.03 394.375C1714.05 398.152 1703.09 402.02 1692.16 405.938C1632.74 427.233 1573.76 449.837 1515.47 474.031C1490.91 484.223 1466.48 494.696 1442.25 505.656C1427.03 512.541 1411.89 519.552 1396.97 527.062C1368.71 541.287 1341.09 556.783 1313.75 572.688C1280.96 591.763 1248.6 611.55 1216.47 631.719C1180.06 654.572 1143.98 677.994 1108.22 701.844C1078.56 721.624 1049.09 741.689 1020.03 762.344C1011.61 768.328 1003.25 774.365 994.938 780.5C990.338 783.896 985.802 787.406 981.188 790.781C970.98 798.247 959.708 804.257 947.719 808.312C926.771 815.398 903.609 816.329 882.344 810.031C873.647 807.455 864.995 803.667 857.844 798C854.857 795.634 851.855 792.79 850.219 789.281C849.985 788.78 849.77 788.284 849.625 787.75C848.979 785.365 849.841 784.343 851.312 782.531C851.65 782.116 852.005 781.696 852.344 781.281C853.029 780.442 853.717 779.617 854.406 778.781C858.017 774.4 861.645 770.025 865.156 765.562C871.522 757.474 877.459 749.027 882.531 740.062C888.962 728.697 893.986 716.614 897.781 704.125C905.679 678.137 907.889 651.168 907.312 624.125C906.707 595.709 903.135 567.176 906.469 538.812C907.419 530.728 909.011 522.684 911.312 514.875C912.353 511.345 913.594 507.907 914.812 504.438C916.557 499.468 918.335 494.527 920.094 489.562C924.386 477.449 928.436 465.272 931.25 452.719C931.775 450.378 932.192 448.01 932.656 445.656C932.778 447.065 932.994 448.464 933.094 449.875C933.446 454.877 933.7 459.925 933.438 464.938C933.208 469.328 932.104 473.555 931.219 477.844C930.069 483.414 929.031 489.031 928.188 494.656C925.859 510.188 924.763 526.068 926.5 541.719C927.663 552.199 930.197 562.652 935.062 572.062C937.606 576.982 940.772 581.577 944.625 585.562C945.772 586.748 947.016 588.018 948.344 589C949.929 590.172 951.718 591.168 953.406 592.188C955.88 593.682 958.39 595.134 960.938 596.5C967.428 599.98 974.2 602.865 981.281 604.906C990.855 607.666 1000.8 609.008 1010.69 610.094C1016.7 610.755 1022.72 611.291 1028.75 611.812C1030.12 611.931 1031.5 612.152 1032.88 612.188C1033.89 612.213 1034.95 612.391 1035.94 612.156C1036.93 611.921 1037.76 611.294 1038.66 610.812C1039.87 610.161 1041.05 609.324 1042.22 608.594C1045.65 606.448 1049.06 604.25 1052.41 601.969C1059.49 597.133 1066.54 591.948 1072.12 585.375C1076.62 580.089 1079.63 573.874 1082.84 567.781C1084.47 564.69 1086.29 561.724 1087.91 558.625C1089.69 555.198 1091.35 551.687 1092.84 548.125C1101.58 527.31 1105.25 504.771 1106.56 482.344C1107.54 465.551 1107.25 448.702 1106.5 431.906C1106.08 422.424 1105.46 412.973 1104.88 403.5C1103.61 383.02 1101.67 362.541 1096.38 342.656C1091.28 323.549 1083.29 305.329 1072.81 288.562C1058.78 266.104 1040.71 246.392 1020.94 228.875C1018.38 226.608 1015.68 224.509 1013.06 222.312Z" fill="#000000" fill-opacity="0.997753" stroke="none"/>
</g>
<g opacity="1">
<path d="M1008.2 326.673C871.513 285.648 852.091 272.958 822.12 242.986C847.134 279.632 859.271 290.791 863.156 307.715C867.04 324.639 859.704 322.356 846.386 320.423C833.069 318.489 814.278 294.285 799.909 280.26C786.639 267.307 715.081 250.366 691.12 245.056C785.294 290.478 776.3 314.578 771.089 334.424C765.877 354.269 758.976 356.226 748.685 356.226C738.393 356.226 740.773 310.479 692.918 294.802C653.789 281.983 626.048 278.577 626.048 278.577C626.048 278.577 604.919 276.991 579.305 269.888C557.657 263.885 562.936 267.869 538.143 253.252C585.759 292.978 626.975 293.486 644.973 324.421C662.971 355.356 663.97 375.288 641.424 390.854C616.138 408.313 564.984 363.212 552.246 327.492C539.508 291.773 526.914 268.085 483.574 238C434.904 211.912 423.303 208.777 393.897 202.452C475.556 264.061 476.351 317.979 479.009 360.378C481.924 406.864 481.592 444.851 464.607 475.885C455.469 491.247 458.586 495.085 427.313 514.106C391.276 511.078 381.989 509.474 361.551 496.503C334.84 473.382 348.682 417.919 350.933 406.84C353.553 393.94 347.127 357.723 347.127 357.723C342.039 397.351 338.402 404.233 328.472 432.581C310.183 481.15 332.755 526.852 316.146 586.454C306.929 619.078 291.335 635.035 278.527 650.917C265.719 666.8 330.946 705.536 389.342 661.046C447.738 616.556 632.921 493.224 729.165 447.776C825.408 402.328 951.999 357.166 984.134 346.547C1016.27 335.928 1144.89 367.698 1008.2 326.673Z" fill="#fdaf19" fill-rule="nonzero" stroke="none"/>
<path d="M393.875 197.469C393.562 197.509 393.235 197.553 392.938 197.656C392.437 197.831 391.916 197.984 391.5 198.312C390.841 198.833 390.171 199.412 389.781 200.156C389.359 200.963 389.175 201.903 389.125 202.812C389.091 203.437 389.336 204.061 389.531 204.656C390.076 206.319 391.944 207.442 393.281 208.469C393.689 208.782 394.094 209.091 394.5 209.406C394.906 209.721 395.314 210.027 395.719 210.344C396.516 210.968 397.333 211.587 398.125 212.219C398.906 212.842 399.662 213.464 400.438 214.094C401.954 215.325 403.476 216.584 404.969 217.844C424.454 234.286 442.211 253.391 454.406 275.938C461.102 288.316 465.939 301.615 468.875 315.375C471.588 328.087 472.639 341.019 473.438 353.969C473.781 359.536 474.146 365.117 474.438 370.688C475.335 387.848 475.774 405.113 474.219 422.25C472.863 437.185 469.901 452.116 463.781 465.875C462.654 468.409 461.452 470.925 460.094 473.344C459.086 475.139 458.024 476.929 457.062 478.75C454.847 482.947 452.855 487.266 449.75 490.906C446.217 495.048 441.787 498.374 437.344 501.469C434.099 503.729 430.766 505.885 427.406 507.969C427.107 508.154 426.8 508.315 426.5 508.5C426.345 508.595 426.199 508.7 426.031 508.781C425.857 508.786 425.699 508.764 425.531 508.75C425.174 508.72 424.826 508.687 424.469 508.656C423.085 508.537 421.696 508.405 420.312 508.281C415.839 507.881 411.366 507.466 406.906 506.938C399.731 506.087 392.52 505.005 385.625 502.781C381.026 501.298 376.631 499.274 372.406 496.938C370.502 495.885 368.634 494.765 366.781 493.625C366.064 493.183 365.31 492.803 364.625 492.312C363.758 491.691 362.967 490.723 362.25 489.938C360.771 488.317 359.489 486.558 358.344 484.688C354.071 477.709 352.048 469.531 351.156 461.469C349.746 448.719 350.912 435.731 353.031 423.125C353.617 419.643 354.304 416.174 355.031 412.719C355.594 410.047 356.259 407.409 356.531 404.688C357.178 398.222 356.683 391.607 356.094 385.156C355.881 382.832 355.612 380.506 355.344 378.188C355.088 375.982 354.827 373.795 354.531 371.594C354.319 370.01 354.106 368.425 353.875 366.844C353.677 365.491 353.461 364.132 353.25 362.781C353.024 361.334 352.805 359.882 352.562 358.438C352.527 358.223 352.412 356.997 352.281 356.844C351.136 355.499 350.608 352.91 348.844 352.812C346.323 352.674 344.317 355.029 342.125 356.281C341.996 356.355 342.034 356.574 342 356.719C341.977 356.819 341.953 356.929 341.938 357.031C341.812 357.849 341.733 358.65 341.625 359.469C341.236 362.428 340.838 365.39 340.406 368.344C338.517 381.281 336.021 394.075 332 406.531C329.552 414.114 326.801 421.579 324.156 429.094C322.854 432.792 321.526 436.471 320.469 440.25C317.9 449.435 316.505 458.895 315.938 468.406C314.693 489.248 317.169 510.104 317.406 530.938C317.65 552.422 315.373 574.04 308.125 594.375C304.977 603.208 300.877 611.66 295.875 619.594C291.685 626.24 286.885 632.463 281.906 638.531C280.244 640.557 278.571 642.57 276.906 644.594C275.651 646.12 274.234 647.62 273.25 649.344C271.723 652.021 271.304 655.148 271.906 658.156C272.162 659.433 272.608 660.664 273.156 661.844C275.563 667.024 280.077 671.054 284.719 674.219C294.139 680.642 305.417 684.298 316.625 685.969C323.449 686.986 330.368 687.236 337.25 686.75C353.431 685.607 369.135 680.302 382.938 671.844C387.262 669.193 391.296 666.172 395.344 663.125C398.492 660.755 401.663 658.42 404.844 656.094C415.018 648.651 425.288 641.34 435.625 634.125C484.872 599.754 535.164 566.833 586.125 535.062C609.26 520.639 632.587 506.495 656.188 492.844C675.803 481.497 695.594 470.459 715.812 460.219C738.808 448.572 762.477 438.198 786.156 428.031C822.329 412.5 858.938 397.974 895.75 384.031C916.969 375.995 938.264 368.158 959.656 360.594C966.005 358.349 972.376 356.14 978.75 353.969C981.97 352.872 985.198 351.556 988.531 350.844C993.362 349.812 998.388 349.628 1003.31 349.562C1021.55 349.321 1039.67 351.729 1057.81 353.219C1059 353.317 1060.21 353.39 1061.41 353.469C1064.21 353.654 1067.56 354.053 1070.31 353.375C1071.14 353.171 1071.95 352.878 1072.66 352.375C1073.12 352.045 1073.57 351.677 1073.91 351.219C1074.33 350.644 1074.67 349.989 1074.91 349.312C1075.09 348.782 1075.15 348.218 1075.16 347.656C1075.16 347.174 1075.08 346.687 1074.97 346.219C1074.13 342.786 1070.16 341.291 1067.25 340.094C1066.46 339.77 1065.67 339.46 1064.88 339.156C1063.93 338.798 1063.01 338.466 1062.06 338.125C1050.6 333.997 1038.89 330.469 1027.25 326.906C1023.48 325.753 1027.25 326.903 1009.72 321.594C1009.29 321.465 1008.87 321.488 1008.44 321.469C1004.69 320.34 1004.34 320.268 1002.31 319.656C998.616 318.541 994.912 317.409 991.219 316.281C979.798 312.794 968.402 309.24 957.031 305.594C939.336 299.919 921.683 294.048 904.312 287.438C890.254 282.087 876.282 276.291 863.156 268.906C857.075 265.485 851.194 261.685 845.656 257.438C840.885 253.778 836.385 249.769 832.031 245.625C831.129 244.766 830.235 243.901 829.344 243.031C828.737 242.439 828.134 241.847 827.531 241.25C826.826 240.552 825.934 239.491 825.062 239C824.762 238.831 824.498 238.582 824.156 238.531C823.105 238.376 821.887 237.872 820.969 238.406C819.399 239.32 818.232 240.915 817.344 242.5C817 243.114 817.374 243.896 817.469 244.594C817.586 245.455 818.266 246.262 818.75 246.969C819.01 247.348 819.271 247.715 819.531 248.094C819.785 248.462 820.027 248.82 820.281 249.188C820.535 249.555 820.777 249.945 821.031 250.312C821.526 251.027 822.034 251.725 822.531 252.438C823.252 253.471 823.993 254.501 824.719 255.531C830.059 263.113 835.533 270.573 841 278.062C845.257 283.895 849.618 289.753 853.156 296.062C855.869 300.899 857.841 306.054 858.781 311.531C859.057 313.14 859.387 314.969 858.969 316.594C858.969 316.595 858.938 316.593 858.938 316.594C858.699 316.643 858.461 316.671 858.219 316.688C856.087 316.831 853.909 316.461 851.812 316.156C849.458 315.814 846.991 315.638 844.75 314.781C842.154 313.789 839.777 312.215 837.562 310.562C834.917 308.589 832.437 306.413 830.031 304.156C823.394 297.931 817.302 291.115 811.062 284.5C809.156 282.479 807.24 280.47 805.281 278.5C803.895 277.107 802.52 275.733 800.938 274.562C797.593 272.088 793.808 270.213 790.031 268.5C784.811 266.133 779.441 264.138 774.031 262.25C759.473 257.17 744.575 253.028 729.656 249.156C719.525 246.527 709.358 244.057 699.156 241.719C698.217 241.504 697.283 241.275 696.344 241.062C695.752 240.928 695.186 240.82 694.594 240.688C693.835 240.517 691.782 239.926 691 240.094C690.303 240.244 689.423 240.196 688.938 240.719C687.778 241.968 686.705 243.459 686.344 245.125C686.119 246.163 686.872 247.189 687.312 248.156C687.465 248.492 687.83 248.711 688.094 248.969C688.218 249.09 688.361 249.178 688.5 249.281C689.446 249.984 690.769 250.49 691.812 251C692.283 251.23 692.749 251.456 693.219 251.688C693.688 251.919 694.156 252.143 694.625 252.375C695.543 252.83 696.459 253.29 697.375 253.75C698.273 254.201 699.199 254.669 700.094 255.125C701.397 255.788 702.672 256.45 703.969 257.125C705.637 257.994 707.311 258.861 708.969 259.75C723.397 267.486 737.951 276.052 750.375 286.781C758.984 294.216 768.067 303.96 768.938 315.906C769.27 320.473 768.318 325.008 767.188 329.406C765.869 334.533 764.606 339.828 762.031 344.5C760.843 346.656 759.203 348.908 756.875 349.938C754.504 350.986 751.957 351.107 749.406 351.156C748.572 350.192 747.955 348.943 747.438 347.812C746.547 345.87 745.763 343.889 744.969 341.906C743.482 338.195 741.972 334.485 740.25 330.875C734.386 318.584 726.066 307.685 714.781 299.906C710.341 296.846 705.548 294.304 700.562 292.25C696.596 290.616 692.497 289.342 688.406 288.062C683.482 286.523 678.534 285.035 673.562 283.656C660.092 279.922 646.452 276.751 632.656 274.469C628.267 273.743 623.879 273.336 619.469 272.781C614.201 272.119 608.938 271.284 603.719 270.312C598.052 269.258 592.435 268.059 586.844 266.656C583.112 265.72 579.412 264.651 575.688 263.688C573.029 263 570.358 262.358 567.688 261.719C565.294 261.146 562.892 260.548 560.594 259.656C555.587 257.713 550.909 254.844 546.281 252.156C545.446 251.671 544.487 251.112 543.656 250.625C542.704 250.067 541.266 249.014 540.156 248.719C539.783 248.619 539.408 248.385 539.031 248.469C537.646 248.775 535.883 248.733 535 249.844C533.868 251.267 533.877 253.345 533.719 255.156C533.674 255.668 534.176 256.09 534.438 256.531C534.889 257.293 535.752 257.849 536.438 258.406C536.937 258.812 537.436 259.221 537.938 259.625C539.916 261.218 541.906 262.787 543.938 264.312C544.949 265.072 545.914 265.758 546.938 266.5C548.401 267.561 549.855 268.63 551.344 269.656C553.264 270.979 555.229 272.267 557.188 273.531C559.542 275.051 561.908 276.531 564.312 277.969C576.709 285.379 589.758 291.481 602.719 297.812C613.63 303.144 624.968 308.768 633.5 317.625C637.488 321.765 640.457 326.567 643.188 331.594C644.87 334.691 646.449 337.837 647.875 341.062C651.988 350.368 655.57 361.748 651.625 371.719C650.954 373.416 650.083 375.019 649.062 376.531C647.428 378.954 645.416 381.111 643.219 383.031C641.214 384.783 639.074 386.571 636.688 387.781C629.942 391.203 621.75 389.413 615.062 386.781C609.118 384.442 603.586 381.152 598.406 377.438C590.655 371.879 583.616 365.307 577.312 358.156C570.385 350.296 564.17 341.591 559.688 332.094C558.034 328.591 556.773 324.943 555.438 321.312C554.379 318.434 553.294 315.567 552.156 312.719C548.338 303.16 543.946 293.81 538.5 285.062C529.073 269.92 516.625 257.095 502.781 245.938C498.791 242.721 494.697 239.611 490.531 236.625C489.128 235.619 487.722 234.528 486.25 233.625C485.198 232.979 484.089 232.456 483 231.875C480.634 230.613 478.249 229.341 475.875 228.094C469.45 224.717 462.994 221.398 456.469 218.219C447.866 214.028 439.13 210.066 430.125 206.812C423.069 204.263 415.856 202.218 408.562 200.469C406.943 200.08 405.343 199.711 403.719 199.344C402.58 199.086 401.452 198.845 400.312 198.594C399.733 198.466 399.174 198.345 398.594 198.219C397.202 197.915 395.303 197.284 393.875 197.469ZM414.312 212.594C417.961 213.608 421.579 214.714 425.156 215.969C436.662 220.005 447.716 225.271 458.594 230.75C463.714 233.329 468.806 235.946 473.875 238.625C475.805 239.645 477.729 240.696 479.656 241.719C480.071 241.939 480.505 242.129 480.906 242.375C482.17 243.149 483.358 244.106 484.562 244.969C487.023 246.732 489.442 248.532 491.844 250.375C498.475 255.463 504.888 260.88 510.812 266.781C516.548 272.494 521.822 278.658 526.438 285.312C531.117 292.058 535.077 299.294 538.5 306.75C540.904 311.987 543.041 317.324 545.062 322.719C546.17 325.675 547.181 328.69 548.344 331.625C549.66 334.948 551.199 338.173 552.906 341.312C558.94 352.405 566.883 362.506 575.781 371.438C578.914 374.582 582.176 377.574 585.594 380.406C588.184 382.553 590.865 384.607 593.625 386.531C595.908 388.123 598.252 389.63 600.656 391.031C613.113 398.29 629.978 404.069 643.344 395.688C652.259 390.097 659.911 381.508 662.469 371.125C664.697 362.078 663.01 352.615 659.969 343.969C658.109 338.68 655.74 333.579 653.125 328.625C651.173 324.929 649.178 321.212 646.781 317.781C644.117 313.969 640.958 310.482 637.5 307.375C630.793 301.348 622.97 296.764 615 292.625C607.707 288.838 600.25 285.372 592.875 281.75C588.955 279.825 585.132 277.741 581.281 275.688C591.235 278.312 601.354 280.366 611.531 281.906C614.737 282.391 617.934 282.826 621.156 283.188C622.193 283.304 623.243 283.402 624.281 283.5C624.584 283.528 624.885 283.568 625.188 283.594C625.303 283.604 625.415 283.616 625.531 283.625C625.484 283.62 625.407 283.587 625.438 283.594C625.499 283.607 625.563 283.612 625.625 283.625C627.386 283.985 629.227 284.145 631 284.438C644.807 286.719 658.464 289.953 671.938 293.719C676.838 295.088 681.711 296.531 686.562 298.062C689.534 299 692.502 299.929 695.406 301.062C701.632 303.492 707.546 306.796 712.75 311C718.837 315.917 723.882 322.042 727.781 328.812C731.607 335.456 734.264 342.58 737.219 349.625C738.956 353.767 741.091 358.911 745.625 360.688C747.484 361.416 749.448 361.31 751.406 361.219C753.252 361.133 755.103 360.944 756.906 360.531C759.587 359.918 762.136 358.833 764.344 357.188C771.049 352.19 773.905 343.456 775.969 335.719C777.764 328.99 779.501 322.218 779 315.188C777.861 299.22 766.154 286.624 754.375 276.969C752.49 275.424 750.549 273.923 748.594 272.469C745.592 270.237 742.526 268.093 739.406 266.031C735.847 263.679 732.165 261.529 728.5 259.344C739.665 262.246 750.796 265.275 761.781 268.781C768.6 270.958 775.415 273.261 782.031 276C786.131 277.697 790.261 279.505 793.969 281.969C795.892 283.247 797.449 284.887 799.062 286.531C800.976 288.481 802.849 290.477 804.719 292.469C812.036 300.263 819.203 308.29 827.344 315.25C831.766 319.031 836.656 322.759 842.25 324.594C843.898 325.134 845.572 325.4 847.281 325.656C848.807 325.885 850.314 326.108 851.844 326.312C856.844 326.982 862.938 327.536 866.625 323.312C870.309 319.092 869.377 312.733 868.312 307.719C868.069 306.569 867.783 305.414 867.469 304.281C865.109 295.792 860.506 288.25 855.531 281.062C853.431 278.029 851.208 275.074 849.031 272.094C849.169 272.184 849.299 272.286 849.438 272.375C864.727 282.254 881.591 289.474 898.531 296C918.967 303.873 939.816 310.7 960.688 317.312C970.862 320.536 981.038 323.708 991.25 326.812C994.387 327.766 993.849 327.595 1005.53 331.125C1005.9 331.348 1006.25 331.62 1006.69 331.75C1012.9 333.618 1010.81 333.003 1012.88 333.625C1016.04 334.581 1019.21 335.534 1022.38 336.5C1026.58 337.782 1030.74 339.194 1034.94 340.5C1026.68 339.789 1018.41 339.151 1010.12 338.969C1002.66 338.805 995.026 338.856 987.656 340.219C982.953 341.089 978.451 342.831 973.938 344.375C967.329 346.635 960.739 348.947 954.156 351.281C933.356 358.657 912.638 366.307 892 374.125C854.496 388.332 817.227 403.144 780.375 418.969C757.029 428.994 733.703 439.266 711.031 450.75C685.165 463.853 659.959 478.256 635 493C604.747 510.871 574.914 529.416 545.312 548.344C515.166 567.621 485.258 587.318 455.688 607.469C432.199 623.475 408.855 639.73 386.156 656.844C378.656 662.498 370.502 667.226 361.719 670.594C344.48 677.203 325.141 678.449 307.375 673.188C300.647 671.195 293.939 668.259 288.406 663.875C286.187 662.117 283.905 660.016 282.688 657.406C282.53 657.068 282.41 656.735 282.312 656.375C281.906 654.88 282.465 654.408 283.406 653.25C283.672 652.923 283.952 652.576 284.219 652.25C284.759 651.589 285.301 650.94 285.844 650.281C289 646.452 292.171 642.636 295.219 638.719C300.647 631.74 305.622 624.435 309.781 616.625C315.26 606.338 319.351 595.321 322.219 584.031C327.188 564.473 328.403 544.326 327.781 524.219C327.154 503.931 324.838 483.495 326.844 463.219C327.517 456.411 328.721 449.654 330.562 443.062C331.871 438.379 333.565 433.83 335.188 429.25C337.932 421.505 340.802 413.803 343.188 405.938C344.338 402.143 345.253 398.291 346.156 394.438C346.195 395.482 346.331 396.518 346.344 397.562C346.371 399.852 346.321 402.163 346.031 404.438C345.655 407.391 344.838 410.334 344.25 413.25C343.451 417.211 342.724 421.191 342.125 425.188C340.04 439.101 339.147 453.495 341.469 467.438C342.991 476.575 345.984 485.6 351.469 493.156C352.916 495.15 354.518 497.029 356.281 498.75C356.98 499.432 357.684 500.106 358.469 500.688C359.372 501.356 360.355 501.911 361.312 502.5C363.303 503.724 365.329 504.901 367.375 506.031C372.555 508.892 377.959 511.335 383.625 513.062C391.883 515.581 400.502 516.704 409.062 517.625C413.536 518.106 418.017 518.519 422.5 518.906C423.579 519 424.668 519.169 425.75 519.188C426.667 519.203 427.608 519.368 428.5 519.156C429.391 518.945 430.158 518.363 430.969 517.938C431.626 517.593 432.245 517.173 432.875 516.781C435.91 514.897 438.923 512.981 441.875 510.969C447.547 507.102 453.187 502.917 457.656 497.656C461.458 493.181 463.91 487.913 466.656 482.781C467.818 480.611 469.113 478.528 470.25 476.344C472.027 472.931 473.611 469.419 475.031 465.844C481.679 449.107 484.352 431.09 485.219 413.188C485.936 398.374 485.49 383.518 484.688 368.719C483.741 351.242 482.948 333.59 479.594 316.375C476.507 300.529 471.158 285.237 463.469 271.031C452.958 251.613 438.516 234.563 422.406 219.562C419.8 217.136 417.007 214.922 414.312 212.594ZM819.031 247C819.099 247.068 819.182 247.119 819.25 247.188C819.19 247.139 819.117 247.111 819.062 247.062C819.048 247.05 819.018 246.986 819.031 247Z" fill="#000000" fill-opacity="0.997753" stroke="none"/>
</g>
</g>
<g id="Airship" vectornator:layerName="Airship">
<path d="M1118.72 303.781C1010.94 306.626 864.309 339.924 713.611 400.837C557.779 463.825 353.573 605.681 213.47 723.879C196.746 727.565 186.652 728.906 171.651 727.494C149.648 725.423 126.872 716.467 118.877 716.437C110.335 716.404 41.2298 751.818 17.7938 766.966C5.686 774.792 47.8246 851.024 64.9214 871.399C54.9671 886.065 50.6618 897.223 53.1431 903.839C55.14 909.164 66.9064 911.234 86.0129 910.736C93.6499 939.906 125.286 1012.58 138.305 1008.05C164.66 998.874 235.074 966.144 240.3 959.387C245.191 953.062 252.119 929.576 264.013 910.949C273.452 896.167 281.608 888.943 299.643 874.362C483.88 832.291 729.138 760.998 882.874 698.857C1150.78 590.568 1330.08 436.085 1283.34 353.788C1262.89 317.784 1202.55 301.567 1118.72 303.781Z" fill="#e94420" fill-rule="nonzero" opacity="1" stroke="#000000" stroke-linecap="butt" stroke-linejoin="round" stroke-opacity="0.997753" stroke-width="20"/>
<g opacity="1">
<path d="M1208.66 402.812C1167.56 432.409 1124.88 459.714 1081.38 485.625C1030.36 516.011 978.21 544.474 925.406 571.625C889.827 589.919 853.89 607.515 817.969 625.125C787.749 639.939 757.614 654.938 727.062 669.062C704.3 679.585 681.324 689.64 658.281 699.531C635.496 709.312 612.652 718.963 589.75 728.469C566.128 738.274 542.482 747.949 518.656 757.25C488.1 769.179 457.32 780.539 426.438 791.594C395.832 802.549 365.068 813.006 334.156 823.062C349.236 818.203 364.357 813.454 379.375 808.406C424.569 793.216 469.405 777 514.031 760.219C546.87 747.87 579.617 735.261 612.125 722.062C643.698 709.244 674.968 695.714 706.188 682.062C744.507 665.307 782.957 648.83 820.75 630.906C854.063 615.107 886.924 598.39 919.5 581.125C948.996 565.493 978.25 549.401 1007.22 532.812C1076.57 493.098 1144.6 450.682 1208.66 402.812ZM334.156 823.062C329.071 824.701 323.999 826.384 318.906 828C320.485 827.495 322.078 827.038 323.656 826.531C327.167 825.403 330.65 824.203 334.156 823.062ZM318.906 828C299.399 834.237 279.845 840.335 260.219 846.188C279.851 840.353 299.382 834.196 318.906 828ZM257.438 847C239.485 852.334 221.457 857.452 203.406 862.438C221.464 857.453 239.475 852.321 257.438 847ZM203.406 862.438C199.166 863.608 194.933 864.786 190.688 865.938C194.931 864.787 199.168 863.608 203.406 862.438ZM190.688 865.938C172.071 870.985 153.408 875.854 134.688 880.5C153.403 875.852 172.076 870.983 190.688 865.938ZM134.688 880.5C130.985 881.419 127.269 882.284 123.562 883.188C127.27 882.285 130.984 881.419 134.688 880.5ZM123.562 883.188C104.088 887.929 84.5868 892.539 65 896.812C84.5942 892.541 104.086 887.933 123.562 883.188Z" fill="#000000" fill-opacity="0.997753" stroke="none"/>
</g>
<g opacity="1">
<path d="M1220.69 425.812C1198.16 449.649 1173.08 470.838 1146.75 490.344C1127.09 504.907 1106.76 518.557 1086 531.5C1038 561.424 987.839 587.829 936.844 612.25C912.313 623.998 887.522 635.157 862.719 646.312C847.842 653.004 832.895 659.576 817.969 666.156C795.278 676.16 772.518 686.036 749.531 695.344C703.759 713.877 657.315 730.654 610.812 747.25C586.271 756.009 561.664 764.65 536.938 772.875C506.909 782.864 476.733 792.376 446.469 801.625C413.454 811.714 380.358 821.495 347.125 830.844C325.481 836.933 303.796 842.862 282.062 848.625C299.729 843.962 317.385 839.233 335 834.375C387.594 819.869 439.96 804.531 492.031 788.25C539.493 773.411 586.841 758.239 633.812 741.906C665.891 730.752 697.729 718.86 729.469 706.781C751.783 698.289 774.085 689.779 796.312 681.062C820.05 671.753 843.623 662.014 866.938 651.688C894.274 639.58 921.236 626.666 947.938 613.219C982.304 595.911 1016.2 577.585 1049.25 557.875C1080.37 539.32 1110.76 519.545 1139.78 497.844C1168.74 476.187 1196.29 452.561 1220.69 425.812ZM282.062 848.625C266.628 852.718 251.134 856.634 235.656 860.562C251.139 856.64 266.619 852.702 282.062 848.625ZM235.656 860.562C227.883 862.532 220.127 864.57 212.344 866.5C220.125 864.569 227.885 862.535 235.656 860.562ZM212.344 866.5C200.652 869.401 188.933 872.162 177.219 874.969C188.933 872.162 200.651 869.399 212.344 866.5ZM149.969 881.531C128.467 886.541 106.917 891.401 85.3438 896.094C106.916 891.405 128.471 886.542 149.969 881.531Z" fill="#000000" fill-opacity="0.997753" stroke="none"/>
</g>
</g>
<g clip-path="url(#ArtboardFrame)" id="Layer-4" vectornator:layerName="Layer 4" visibility="hidden">
<path d="M767.297 726.673C735.916 734.009 727.445 736.841 709.417 735.182C691.388 733.522 672.695 726.225 666.146 726.213C659.149 726.201 602.614 755.302 583.441 767.75C573.407 774.265 609.194 838.379 622.858 854.03C624.329 853.184 763.233 729.311 767.297 726.673Z" fill="#e94420" fill-rule="nonzero" opacity="1" stroke="#000000" stroke-linecap="butt" stroke-linejoin="round" stroke-width="5"/>
<path d="M612.628 879.819C596.317 836.595 933.535 555.827 1152.81 466.669C1372.09 377.51 1581 359.82 1619.43 427.156C1657.86 494.491 1511.26 621.355 1291.98 710.513C1072.7 799.671 624.919 912.391 612.628 879.819Z" fill="#e94420" fill-rule="nonzero" opacity="1" stroke="#000000" stroke-linecap="butt" stroke-linejoin="round" stroke-opacity="0.997753" stroke-width="5"/>
<path d="M638.417 881.092C642.443 901.474 671.287 968.998 682.578 965.043C704.152 957.486 761.75 930.55 766.02 925.007C770.016 919.818 775.673 900.565 785.385 885.286C795.097 870.006 802.518 865.036 827.514 844.693C822.941 846.295 639.986 880.445 638.417 881.092Z" fill="#e94420" fill-rule="nonzero" opacity="1" stroke="#000000" stroke-linecap="butt" stroke-linejoin="round" stroke-width="5"/>
</g>
</svg>
